# xmcd CD database file
#
# Track frame offsets:
#	182
#	9450
#	21040
#	33675
#	43995
#	57832
#	70870
#	81817
#	95087
#	106397
#	119485
#	130182
#	141515
#	152900
#	162570
#	172880
#	183505
#
# Disc length: 2644 seconds
#
# Revision: 1
# Processed by: cddbd v1.5.2PL0 Copyright (c) Steve Scherf et al.
# Submitted via: CDex 1.70beta2
#
DISCID=f10a5211
DTITLE=Frankie Laine - 16 Greatest Hits
DYEAR=1988
DGENRE=Country
TTITLE0=Rawhide
TTITLE1=Mule Train
TTITLE2=High Noon
TTITLE3=I Believe
TTITLE4=Cool Water
TTITLE5=Moonlight Gambler
TTITLE6=Hummingbird
TTITLE7=Wheel Of Fortune
TTITLE8=Along The Navajo Trail
TTITLE9=Cry Of The Wild Goose
TTITLE10=Sixteen Tons
TTITLE11=Answer Me
TTITLE12=Love Is A Golden Ring
TTITLE13=Gunfight At The O.K. Corral
TTITLE14=The Hanging Tree
TTITLE15=A Woman In Love
TTITLE16=Jezebel
EXTD=YEAR: 1988
EXTT0=
EXTT1=
EXTT2=
EXTT3=
EXTT4=
EXTT5=
EXTT6=
EXTT7=
EXTT8=
EXTT9=
EXTT10=
EXTT11=
EXTT12=
EXTT13=
EXTT14=
EXTT15=
EXTT16=
PLAYORDER=
